<svg width="20" height="20" viewBox="0 0 20 20" fill="none" xmlns="http://www.w3.org/2000/svg">
<g clip-path="url(#clip0)">
<path d="M20.0005 10.0615C20.0005 4.50399 15.523 -0.00100708 10.0005 -0.00100708C4.4755 0.00024292 -0.0019989 4.50399 -0.0019989 10.0627C-0.0019989 15.084 3.6555 19.2465 8.4355 20.0015V12.9702H5.898V10.0627H8.438V7.84399C8.438 5.32274 9.93175 3.93024 12.2155 3.93024C13.3105 3.93024 14.4543 4.12649 14.4543 4.12649V6.60149H13.193C11.9518 6.60149 11.5643 7.37774 11.5643 8.17399V10.0615H14.3368L13.8943 12.969H11.563V20.0002C16.343 19.2452 20.0005 15.0827 20.0005 10.0615Z" fill="#CCCCCC"/>
</g>
<defs>
<clipPath id="clip0">
<rect width="20" height="20" fill="white"/>
</clipPath>
</defs>
</svg>
