<svg width="72" height="24" viewBox="0 0 72 24" fill="none" xmlns="http://www.w3.org/2000/svg">
<path d="M4.52932 0.973969H0.5271L8.26482 23.7004H12.3115L7.82016 10.074L4.52932 0.973969ZM20.8936 0.973969H16.9804L12.3556 13.0757L14.2678 18.5071L20.8936 0.973969ZM27.9288 1.02154H43.76V4.64248H27.9288V1.02154ZM27.9288 20.0792H43.7151V23.7002H27.9288V20.0792V20.0792ZM27.9288 10.4552H42.2033V14.0285H27.9288V10.4552ZM59.3773 20.0792C58.9326 19.984 58.5175 19.841 58.1321 19.6504C57.302 19.2375 56.5757 18.6658 55.9532 17.9352C55.3603 17.2682 54.8859 16.4424 54.5302 15.4577C54.2041 14.4731 54.041 13.4726 54.041 12.4562V12.3609V12.2179C54.041 11.1697 54.2041 10.1534 54.5302 9.16871C54.9156 8.15235 55.3899 7.34236 55.9532 6.73886C56.5461 6.00833 57.2576 5.45245 58.0877 5.0713C58.5917 4.81722 59.0216 4.65842 59.3773 4.59491V1.0216C58.3397 1.18039 57.4207 1.4504 56.6202 1.83153C55.3158 2.43504 54.2041 3.24496 53.285 4.26139C52.366 5.27781 51.6397 6.48475 51.1061 7.88227C50.5724 9.27978 50.3056 10.7409 50.3056 12.2655V12.3608V12.5037C50.3056 14.0601 50.5724 15.5212 51.1061 16.887C51.5804 18.2528 52.2919 19.4439 53.2406 20.4604C54.1892 21.5086 55.301 22.3185 56.5757 22.8902C57.3762 23.2714 58.3101 23.5413 59.3773 23.7001V20.0792V20.0792ZM71.4728 12.361L71.4729 12.218C71.4729 10.6616 71.2061 9.20052 70.6724 7.83471C70.1388 6.4372 69.4125 5.2302 68.4934 4.21383C67.6041 3.19747 66.5072 2.40333 65.2027 1.8316C64.4616 1.45045 63.5574 1.18047 62.4901 1.02167V4.64261L63.0238 4.83319C63.2906 4.92848 63.4981 5.0079 63.6464 5.07141C64.4765 5.48434 65.2028 6.05606 65.8253 6.78659C66.4182 7.45364 66.8926 8.27943 67.2483 9.26408C67.5744 10.2487 67.7375 11.2492 67.7375 12.2657V12.361V12.5039C67.7375 13.5521 67.5744 14.5685 67.2483 15.5531C66.8629 16.5695 66.3885 17.3795 65.8253 17.983C65.2324 18.7135 64.5209 19.2694 63.6907 19.6505C63.3053 19.8411 62.9051 19.984 62.4901 20.0793V23.7003C63.3795 23.5732 64.2688 23.3032 65.1582 22.8903C66.3737 22.3503 67.4854 21.5404 68.4934 20.4604C69.4717 19.3487 70.198 18.1418 70.6723 16.8395C71.206 15.442 71.4728 13.9809 71.4728 12.4563V12.361L71.4728 12.361Z" fill="url(#paint0_linear)"/>
<defs>
<linearGradient id="paint0_linear" x1="0.5271" y1="0.973969" x2="71.4729" y2="0.973969" gradientUnits="userSpaceOnUse">
<stop stop-color="#00DDFF"/>
<stop offset="1" stop-color="#FF00D4"/>
</linearGradient>
</defs>
</svg>
